<svg width="32" height="32" viewBox="0 0 48 48" fill="none" xmlns="http://www.w3.org/2000/svg">
<path d="M0 24C0 4.8 4.8 0 24 0C43.2 0 48 4.8 48 24C48 43.2 43.2 48 24 48C4.8 48 0 43.2 0 24Z" fill="url(#paint0_linear_3416_291)"/>
<path d="M27.4108 27.3926C29.2853 25.5181 29.2853 22.4789 27.4108 20.6044C25.5363 18.7298 22.4971 18.7298 20.6226 20.6044C18.748 22.4789 18.748 25.5181 20.6226 27.3926C22.4971 29.2671 25.5363 29.2671 27.4108 27.3926Z" fill="white"/>
<path d="M35.7694 19.7472C36.405 19.4475 37.1658 19.7553 37.3474 20.4341C37.9892 22.8334 37.9754 25.3746 37.2867 27.787C36.4103 30.8568 34.4965 33.5279 31.8716 35.345C30.821 36.0723 29.6823 36.6445 28.4905 37.0527C27.8244 37.2809 27.144 36.8189 27.0402 36.1225L26.4943 32.4589C26.4071 31.8741 26.764 31.322 27.3004 31.0732C27.7017 30.8871 28.0886 30.6663 28.4563 30.4117C29.9401 29.3846 31.0215 27.8749 31.5169 26.1396C31.8316 25.0372 31.8966 23.8874 31.7183 22.7708C31.6247 22.1848 31.8856 21.5782 32.4224 21.3251L35.7694 19.7472ZM15.3572 23.8946C15.8522 23.9679 16.2106 24.3934 16.2679 24.8905V24.8905C16.4743 26.6832 17.2962 28.3489 18.593 29.6038C19.8899 30.8586 21.5815 31.625 23.3801 31.7723V31.7723C23.7186 31.8 24.0066 32.0454 24.0566 32.3814L24.6664 36.4771C24.7701 37.1732 24.2543 37.8136 23.551 37.7905C23.3309 37.7832 23.1107 37.7707 22.8904 37.7526C19.7083 37.492 16.7148 36.1357 14.4204 33.9156C12.1261 31.6955 10.6726 28.7482 10.3074 25.5766C10.2639 25.1988 10.2363 24.8205 10.2242 24.4428C10.2016 23.7405 10.8408 23.2258 11.536 23.3288L15.3572 23.8946ZM12.418 16.5212C14.1478 13.8378 16.7546 11.8372 19.7941 10.8603C22.3309 10.045 25.038 9.98506 27.5904 10.6694C28.2706 10.8518 28.5773 11.6153 28.2744 12.2511L26.6808 15.5958C26.4266 16.1293 25.8227 16.388 25.2391 16.2954C24.0386 16.1047 22.8021 16.1958 21.63 16.5726C19.912 17.1248 18.4384 18.2556 17.4607 19.7724C17.2689 20.0699 17.0987 20.3788 16.9505 20.6966C16.7013 21.2308 16.151 21.5857 15.568 21.4994L11.8997 20.9564C11.2022 20.8532 10.7394 20.1714 10.969 19.5047C11.3279 18.4625 11.8127 17.4601 12.418 16.5212Z" fill="white"/>
<defs>
<linearGradient id="paint0_linear_3416_291" x1="24" y1="0" x2="24" y2="48" gradientUnits="userSpaceOnUse">
<stop stop-color="#3990FF"/>
<stop offset="1" stop-color="#2662FF"/>
</linearGradient>
</defs>
</svg>
